HIERARCHY
ROOT hip
{
  OFFSET 5.51535 103.731 -2.80141
  CHANNELS 6 Xposition Yposition Zposition Zrotation Xrotation Yrotation
  JOINT abdomen
  {
    OFFSET 0 -1.186 -1.5018
    CHANNELS 6 Xposition Yposition Zposition Zrotation Xrotation Yrotation
    JOINT abdomen2
    {
      OFFSET 0 9.964 0.2134
      CHANNELS 6 Xposition Yposition Zposition Zrotation Xrotation Yrotation
      JOINT chest
      {
        OFFSET 0 13.134 -3.2573
        CHANNELS 6 Xposition Yposition Zposition Zrotation Xrotation Yrotation
        JOINT neck
        {
          OFFSET 0 20.686 -1.6905
          CHANNELS 6 Xposition Yposition Zposition Zrotation Xrotation Yrotation
          JOINT head
          {
            OFFSET 0 7.23801 -0.1237
            CHANNELS 6 Xposition Yposition Zposition Zrotation Xrotation Yrotation
            End Site
            {
              OFFSET 0 0 0
            }
          }
        }
        JOINT lCollar
        {
          OFFSET 1.7069 20.075 5.0056
          CHANNELS 6 Xposition Yposition Zposition Zrotation Xrotation Yrotation
          JOINT lShldr
          {
            OFFSET 13.6458 -0.0470195 -4.849
            CHANNELS 6 Xposition Yposition Zposition Zrotation Xrotation Yrotation
            JOINT lForeArm
            {
              OFFSET 28.3255 -0.97589 2.2888
              CHANNELS 6 Xposition Yposition Zposition Zrotation Xrotation Yrotation
              JOINT lHand
              {
                OFFSET 22.1583 -0.529998 10.8316
                CHANNELS 6 Xposition Yposition Zposition Zrotation Xrotation Yrotation
                JOINT lThumb1
                {
                  OFFSET 0.786 0.111997 2.5817
                  CHANNELS 6 Xposition Yposition Zposition Zrotation Xrotation Yrotation
                  JOINT lThumb2
                  {
                    OFFSET 0.360097 -0.877999 4.2331
                    CHANNELS 6 Xposition Yposition Zposition Zrotation Xrotation Yrotation
                    JOINT lThumb2_End
                    {
                      OFFSET 1.8127 -1.21601 2.2227
                      CHANNELS 6 Xposition Yposition Zposition Zrotation Xrotation Yrotation
                      End Site
                      {
                        OFFSET 0.0180981 -0.012195 0.0222007
                      }
                    }
                  }
                }
                JOINT lCarpal1
                {
                  OFFSET 0.9571 1.114 1.7695
                  CHANNELS 6 Xposition Yposition Zposition Zrotation Xrotation Yrotation
                  JOINT lIndex1
                  {
                    OFFSET 4.12461 0.486992 4.1451
                    CHANNELS 6 Xposition Yposition Zposition Zrotation Xrotation Yrotation
                    JOINT lIndex2
                    {
                      OFFSET 3.4052 -1.45401 2.7682
                      CHANNELS 6 Xposition Yposition Zposition Zrotation Xrotation Yrotation
                      JOINT lIndex2_End
                      {
                        OFFSET 1.45309 -1.79499 1.2713
                        CHANNELS 6 Xposition Yposition Zposition Zrotation Xrotation Yrotation
                        End Site
                        {
                          OFFSET 0.0144979 -0.0179083 0.0126995
                        }
                      }
                    }
                  }
                  JOINT lMid1
                  {
                    OFFSET 5.6954 0.209987 2.1184
                    CHANNELS 6 Xposition Yposition Zposition Zrotation Xrotation Yrotation
                    JOINT lMid2
                    {
                      OFFSET 3.9766 -1.53999 2.3863
                      CHANNELS 6 Xposition Yposition Zposition Zrotation Xrotation Yrotation
                      JOINT lMid2_End
                      {
                        OFFSET 1.4042 -1.926 1.125
                        CHANNELS 6 Xposition Yposition Zposition Zrotation Xrotation Yrotation
                        End Site
                        {
                          OFFSET 0.013999 -0.0193044 0.011301
                        }
                      }
                    }
                  }
                }
                JOINT lCarpal2
                {
                  OFFSET 2.0956 0.66 -0.3894
                  CHANNELS 6 Xposition Yposition Zposition Zrotation Xrotation Yrotation
                  JOINT lRing1
                  {
                    OFFSET 5.0395 -0.090013 2.4971
                    CHANNELS 6 Xposition Yposition Zposition Zrotation Xrotation Yrotation
                    JOINT lRing2
                    {
                      OFFSET 3.7921 -1.55199 1.4806
                      CHANNELS 6 Xposition Yposition Zposition Zrotation Xrotation Yrotation
                      JOINT lRing2_End
                      {
                        OFFSET 1.4655 -1.808 0.9609
                        CHANNELS 6 Xposition Yposition Zposition Zrotation Xrotation Yrotation
                        End Site
                        {
                          OFFSET 0.0147015 -0.0181014 0.00959957
                        }
                      }
                    }
                  }
                  JOINT lPinky1
                  {
                    OFFSET 4.9141 -1.269 0.3591
                    CHANNELS 6 Xposition Yposition Zposition Zrotation Xrotation Yrotation
                    JOINT lPinky2
                    {
                      OFFSET 3.1477 -1.685 0.8462
                      CHANNELS 6 Xposition Yposition Zposition Zrotation Xrotation Yrotation
                      JOINT lPinky2_End
                      {
                        OFFSET 0.805498 -1.58501 0.795499
                        CHANNELS 6 Xposition Yposition Zposition Zrotation Xrotation Yrotation
                        End Site
                        {
                          OFFSET 0.00809703 -0.0157944 0.00799848
                        }
                      }
                    }
                  }
                }
              }
            }
          }
        }
        JOINT rCollar
        {
          OFFSET -1.7069 20.075 5.0056
          CHANNELS 6 Xposition Yposition Zposition Zrotation Xrotation Yrotation
          JOINT rShldr
          {
            OFFSET -13.6458 -0.0470107 -4.849
            CHANNELS 6 Xposition Yposition Zposition Zrotation Xrotation Yrotation
            JOINT rForeArm
            {
              OFFSET -28.3255 -0.975895 2.2888
              CHANNELS 6 Xposition Yposition Zposition Zrotation Xrotation Yrotation
              JOINT rHand
              {
                OFFSET -22.1583 -0.530007 10.8316
                CHANNELS 6 Xposition Yposition Zposition Zrotation Xrotation Yrotation
                JOINT rThumb1
                {
                  OFFSET -0.785997 0.112005 2.5817
                  CHANNELS 6 Xposition Yposition Zposition Zrotation Xrotation Yrotation
                  JOINT rThumb2
                  {
                    OFFSET -0.360106 -0.877994 4.2331
                    CHANNELS 6 Xposition Yposition Zposition Zrotation Xrotation Yrotation
                    JOINT rThumb2_End
                    {
                      OFFSET -1.8127 -1.216 2.2227
                      CHANNELS 6 Xposition Yposition Zposition Zrotation Xrotation Yrotation
                      End Site
                      {
                        OFFSET -0.0180972 -0.0121973 0.0222005
                      }
                    }
                  }
                }
                JOINT rCarpal1
                {
                  OFFSET -0.9571 1.114 1.7695
                  CHANNELS 6 Xposition Yposition Zposition Zrotation Xrotation Yrotation
                  JOINT rIndex1
                  {
                    OFFSET -4.1246 0.487011 4.1451
                    CHANNELS 6 Xposition Yposition Zposition Zrotation Xrotation Yrotation
                    JOINT rIndex2
                    {
                      OFFSET -3.4052 -1.45401 2.7682
                      CHANNELS 6 Xposition Yposition Zposition Zrotation Xrotation Yrotation
                      JOINT rIndex2_End
                      {
                        OFFSET -1.4531 -1.795 1.2713
                        CHANNELS 6 Xposition Yposition Zposition Zrotation Xrotation Yrotation
                        End Site
                        {
                          OFFSET -0.0145077 -0.0180048 0.0127017
                        }
                      }
                    }
                  }
                  JOINT rMid1
                  {
                    OFFSET -5.6954 0.210002 2.1184
                    CHANNELS 6 Xposition Yposition Zposition Zrotation Xrotation Yrotation
                    JOINT rMid2
                    {
                      OFFSET -3.9766 -1.54 2.3863
                      CHANNELS 6 Xposition Yposition Zposition Zrotation Xrotation Yrotation
                      JOINT rMid2_End
                      {
                        OFFSET -1.4042 -1.926 1.125
                        CHANNELS 6 Xposition Yposition Zposition Zrotation Xrotation Yrotation
                        End Site
                        {
                          OFFSET -0.0139948 -0.0192916 0.0112994
                        }
                      }
                    }
                  }
                }
                JOINT rCarpal2
                {
                  OFFSET -2.0956 0.66 -0.3894
                  CHANNELS 6 Xposition Yposition Zposition Zrotation Xrotation Yrotation
                  JOINT rRing1
                  {
                    OFFSET -5.03951 -0.0899879 2.4971
                    CHANNELS 6 Xposition Yposition Zposition Zrotation Xrotation Yrotation
                    JOINT rRing2
                    {
                      OFFSET -3.7921 -1.55201 1.4806
                      CHANNELS 6 Xposition Yposition Zposition Zrotation Xrotation Yrotation
                      JOINT rRing2_End
                      {
                        OFFSET -1.4655 -1.808 0.960901
                        CHANNELS 6 Xposition Yposition Zposition Zrotation Xrotation Yrotation
                        End Site
                        {
                          OFFSET -0.0146934 -0.0180999 0.00959832
                        }
                      }
                    }
                  }
                  JOINT rPinky1
                  {
                    OFFSET -4.91411 -1.26899 0.359202
                    CHANNELS 6 Xposition Yposition Zposition Zrotation Xrotation Yrotation
                    JOINT rPinky2
                    {
                      OFFSET -3.14769 -1.68501 0.846199
                      CHANNELS 6 Xposition Yposition Zposition Zrotation Xrotation Yrotation
                      JOINT rPinky2_End
                      {
                        OFFSET -0.805498 -1.585 0.7955
                        CHANNELS 6 Xposition Yposition Zposition Zrotation Xrotation Yrotation
                        End Site
                        {
                          OFFSET -0.00810035 -0.0158035 0.00800029
                        }
                      }
                    }
                  }
                }
              }
            }
          }
        }
      }
    }
  }
  JOINT lThigh
  {
    OFFSET 8.367 -8.2066 0.5982
    CHANNELS 6 Xposition Yposition Zposition Zrotation Xrotation Yrotation
    JOINT lShin
    {
      OFFSET 2.1923 -43.463 -0.4932
      CHANNELS 6 Xposition Yposition Zposition Zrotation Xrotation Yrotation
      JOINT lFoot
      {
        OFFSET 0.733301 -45.8593 -2.6451
        CHANNELS 6 Xposition Yposition Zposition Zrotation Xrotation Yrotation
        End Site
        {
          OFFSET 2.6618 -4.2699 12.3931
        }
      }
    }
  }
  JOINT rThigh
  {
    OFFSET -8.367 -8.2066 0.5982
    CHANNELS 6 Xposition Yposition Zposition Zrotation Xrotation Yrotation
    JOINT rShin
    {
      OFFSET -2.1923 -43.463 -0.4931
      CHANNELS 6 Xposition Yposition Zposition Zrotation Xrotation Yrotation
      JOINT rFoot
      {
        OFFSET -0.733299 -45.8593 -2.6451
        CHANNELS 6 Xposition Yposition Zposition Zrotation Xrotation Yrotation
        End Site
        {
          OFFSET -2.6618 -4.2699 12.3931
        }
      }
    }
  }
}
MOTION
Frames:	4
Frame Time:	0.0333333
-41.9669 100.054 -52.8319 -0.635287 6.14509 101.884 3.4196e-007 -1.18599 -1.5018 -0.000421556 -2.15288 1.02168 4.76544e-008 9.964 0.213401 0.0376432 -4.30543 2.04549 -1.71882e-006 13.134 -3.2573 0.0376459 -4.30542 2.04552 -4.60866e-007 20.686 -1.6905 -0.570592 13.6137 -8.5751 -1.27164e-006 7.23801 -0.123698 -6.33081 -1.10015 -8.80725 1.7069 20.075 5.0056 0.496445 0.856005 8.23865 13.6458 -0.0470083 -4.849 -74.2297 -0.445612 34.0689 28.3255 -0.975903 2.2888 -1.61901 8.31152 -8.63795 22.1583 -0.529997 10.8316 -26.7084 -34.8359 -2.27113 0.786006 0.111993 2.5817 0.000347431 0.000298027 2.51655e-005 0.360098 -0.878001 4.2331 -0.000280466 -0.000206393 7.2725e-009 1.8127 -1.21601 2.2227 -0.000184338 6.69605e-005 1.04933e-005 0.9571 1.114 1.7695 1.59028e-015 0 -0 4.1246 0.486991 4.14511 -0.000112526 -0.000109204 0.000187188 3.4052 -1.45401 2.7682 0.000376108 0.000100249 4.81377e-007 1.4531 -1.79499 1.2713 -0.000172147 4.38492e-005 2.82833e-005 5.6954 0.209983 2.1184 2.01422 -1.01027 -0.822483 3.9766 -1.54 2.3863 2.01523 -1.01084 -0.822915 1.4042 -1.926 1.125 2.01531 -1.01095 -0.823223 2.0956 0.66 -0.3894 1.59028e-015 0 -0 5.03951 -0.0900135 2.4971 1.83511 -3.86239 -5.61256 3.7921 -1.55199 1.4806 4.41724 -2.45616 -2.02478 1.4655 -1.808 0.960897 4.41749 -2.45619 -2.02485 4.9141 -1.269 0.359105 10.759 -6.72879 -4.53615 3.1477 -1.68501 0.846199 3.85858 -2.28131 -1.74599 0.805501 -1.58501 0.795499 2.70807 -1.58472 -1.23798 -1.7069 20.075 5.0056 -43.5806 -1.20683 5.58146 -13.6458 -0.0470134 -4.849 -9.50085 -41.9555 -7.42253 -28.3255 -0.975883 2.28879 7.4431 -33.1724 10.4989 -22.1583 -0.530009 10.8316 11.1107 -20.0442 -6.43143 -0.785997 0.112005 2.5817 -19.2121 49.9311 17.782 -0.360105 -0.877995 4.2331 -0.518263 0.461416 -1.59089 -1.8127 -1.216 2.2227 -2.77349 2.81313 -9.01341 -0.9571 1.114 1.7695 -6.36111e-015 -3.18055e-015 -9.54166e-015 -4.12461 0.487012 4.14511 -23.6185 3.4021 -15.5055 -3.4052 -1.454 2.76819 39.4979 10.0978 -9.27472 -1.4531 -1.795 1.2713 38.8029 9.98603 -9.06154 -5.69541 0.21 2.1184 -1.04218 5.48645 -10.0637 -3.9766 -1.54 2.3863 52.309 13.5299 -14.1045 -1.4042 -1.926 1.12499 44.0035 12.3921 -11.1857 -2.0956 0.66 -0.3894 -6.36111e-015 -3.18055e-015 -9.54166e-015 -5.03951 -0.0899874 2.4971 16.4926 0.275063 -5.65911 -3.7921 -1.552 1.4806 37.3341 11.9096 -10.7863 -1.4655 -1.80801 0.960897 38.6322 12.1694 -11.2725 -4.91411 -1.26899 0.359208 24.6638 -0.263241 -2.07539 -3.14769 -1.68501 0.846195 30.5291 11.315 -8.19447 -0.805496 -1.585 0.795496 30.4595 11.2958 -8.16998 8.36701 -8.20662 0.598202 -24.2764 2.39621 -2.00829 2.1923 -43.4631 -0.493198 0.517205 -1.57833 0.984661 0.733308 -45.8593 -2.6451 10.3197 0.013297 -6.19525 -8.36701 -8.20662 0.598197 -2.01975 -16.0579 45.6686 -2.19292 -43.463 -0.492395 13.3732 41.8732 -5.65875 -0.733304 -45.8593 -2.64509 -15.7782 3.29966 -23.1763 
-42.1047 99.9353 -52.9773 -0.78649 6.53703 102.196 5.75465e-007 -1.18599 -1.5018 -0.0736985 -2.16806 1.12422 -1.60949e-006 9.96399 0.213399 -0.104895 -4.33716 2.24792 -2.1269e-006 13.134 -3.2573 -0.104893 -4.33716 2.24793 -1.16823e-006 20.6861 -1.69049 -0.455188 14.293 -8.43815 6.63717e-007 7.23801 -0.123698 -6.71171 -1.06224 -8.64309 1.7069 20.075 5.0056 0.0811218 0.862583 8.40481 13.6458 -0.0470138 -4.849 -74.1868 -0.507629 34.1715 28.3255 -0.975907 2.28881 -1.59926 8.13712 -8.71562 22.1583 -0.529999 10.8316 -26.7023 -35.009 -2.28613 0.786004 0.112 2.5817 0.0175568 0.0115835 0.055259 0.3601 -0.878001 4.2331 -0.00632337 -0.000913062 -0.0109782 1.8127 -1.21601 2.2227 0.0212524 0.000634238 0.0297341 0.9571 1.114 1.7695 -7.95139e-016 3.18055e-015 1.59028e-015 4.1246 0.486994 4.1451 -0.0711755 0.0497061 0.0745739 3.4052 -1.454 2.7682 -0.0500984 0.0225079 0.0206271 1.4531 -1.79499 1.2713 -0.062464 0.0276157 0.0255152 5.6954 0.209983 2.1184 1.95708 -0.962984 -0.790267 3.9766 -1.53999 2.3863 1.93403 -0.969427 -0.790344 1.4042 -1.926 1.125 1.95534 -0.980314 -0.799127 2.0956 0.66 -0.3894 -7.95139e-016 3.18055e-015 1.59028e-015 5.03951 -0.0900119 2.4971 1.78056 -3.82065 -5.56571 3.7921 -1.552 1.4806 4.32736 -2.40421 -1.98504 1.4655 -1.808 0.960902 4.34801 -2.41597 -1.99414 4.9141 -1.269 0.359102 10.6528 -6.66496 -4.50805 3.1477 -1.685 0.846197 3.78292 -2.23509 -1.71294 0.805503 -1.58501 0.795496 2.64836 -1.5425 -1.20905 -1.7069 20.075 5.0056 -43.7805 -1.2139 5.66323 -13.6458 -0.0470117 -4.849 -10.2213 -41.8341 -7.91218 -28.3255 -0.97587 2.28881 6.98755 -32.7173 9.34526 -22.1583 -0.529998 10.8316 11.5239 -19.9752 -6.04358 -0.785999 0.112003 2.5817 -19.2121 49.9311 17.782 -0.360108 -0.877992 4.2331 -0.518257 0.461417 -1.59089 -1.8127 -1.216 2.2227 -2.77348 2.81314 -9.01341 -0.9571 1.114 1.7695 0 3.18055e-015 -0 -4.1246 0.487012 4.1451 -23.6185 3.4021 -15.5055 -3.4052 -1.45401 2.76819 39.4979 10.0978 -9.27471 -1.4531 -1.795 1.27131 38.8029 9.98601 -9.06153 -5.6954 0.210002 2.1184 -1.04219 5.48645 -10.0637 -3.9766 -1.54 2.38629 52.309 13.5299 -14.1045 -1.4042 -1.926 1.125 44.0035 12.3921 -11.1857 -2.0956 0.66 -0.3894 0 3.18055e-015 -0 -5.0395 -0.0899862 2.4971 16.4926 0.275083 -5.65911 -3.7921 -1.55201 1.48059 37.334 11.9096 -10.7863 -1.4655 -1.808 0.960904 38.6322 12.1694 -11.2725 -4.91411 -1.26899 0.359202 24.6638 -0.263239 -2.07538 -3.1477 -1.68501 0.846199 30.529 11.315 -8.19447 -0.805501 -1.58499 0.795504 30.4595 11.2959 -8.16998 8.367 -8.2066 0.598198 -24.8296 2.2994 -2.19017 2.1923 -43.463 -0.4932 0.515735 -1.44907 0.98347 0.733301 -45.8593 -2.6451 10.3571 0.024502 -6.30162 -8.367 -8.2066 0.598201 -2.20979 -15.9638 46.5562 -2.1927 -43.463 -0.492653 13.4882 42.2243 -5.94987 -0.733303 -45.8593 -2.64509 -16.3776 3.19871 -23.4797 
-42.2077 99.8165 -53.0866 -0.893738 6.83035 102.538 3.81491e-007 -1.18599 -1.5018 -0.128928 -2.18032 1.21321 -1.80524e-007 9.964 0.213401 -0.211822 -4.36288 2.42413 -5.35353e-008 13.134 -3.2573 -0.211821 -4.36288 2.42412 -1.2855e-006 20.686 -1.6905 -0.348799 15.0043 -8.31758 -3.84561e-007 7.23801 -0.123701 -7.01985 -1.0317 -8.46494 1.7069 20.075 5.0056 -0.0958728 0.870947 8.60192 13.6458 -0.0470081 -4.849 -74.3755 -0.569371 34.1827 28.3255 -0.975914 2.28881 -1.61202 7.82679 -8.84405 22.1583 -0.530004 10.8316 -27.0121 -35.1812 -2.36051 0.786004 0.111994 2.5817 0.0668353 0.0439108 0.214368 0.360097 -0.878001 4.2331 -0.0235464 -0.00299087 -0.0426196 1.8127 -1.21601 2.2227 0.0520967 0.00642207 0.0959092 0.9571 1.114 1.7695 0 3.18055e-015 -0 4.12461 0.48699 4.1451 -0.276299 0.193165 0.289075 3.4052 -1.45401 2.7682 -0.203725 0.0892182 0.0814139 1.4531 -1.79499 1.2713 -0.241948 0.106968 0.0990873 5.69541 0.209985 2.1184 1.79218 -0.826809 -0.697252 3.9766 -1.54 2.3863 1.70003 -0.850365 -0.696166 1.4042 -1.926 1.125 1.7824 -0.892272 -0.729598 2.0956 0.66 -0.3894 0 3.18055e-015 -0 5.0395 -0.0900148 2.4971 1.62339 -3.70042 -5.43043 3.7921 -1.55199 1.4806 4.06823 -2.25482 -1.8703 1.4655 -1.808 0.960898 4.14761 -2.30035 -1.90545 4.9141 -1.269 0.3591 10.3467 -6.48144 -4.42631 3.1477 -1.68501 0.846203 3.55358 -2.09581 -1.61279 0.8055 -1.58501 0.795499 2.47088 -1.44285 -1.13193 -1.7069 20.075 5.0056 -43.9178 -1.2114 5.60943 -13.6458 -0.0470113 -4.849 -10.7939 -41.9862 -8.07642 -28.3255 -0.975859 2.28881 6.77344 -32.6969 8.20691 -22.1583 -0.530008 10.8316 11.7006 -19.1993 -5.72885 -0.785997 0.112006 2.5817 -19.2121 49.9311 17.782 -0.360106 -0.877994 4.2331 -0.518249 0.46142 -1.59089 -1.8127 -1.216 2.2227 -2.7735 2.81313 -9.01342 -0.9571 1.114 1.7695 0 6.36111e-015 -0 -4.12461 0.48701 4.1451 -23.6185 3.40209 -15.5055 -3.4052 -1.45401 2.76819 39.4979 10.0978 -9.27473 -1.4531 -1.795 1.2713 38.8029 9.98603 -9.06153 -5.69541 0.210001 2.11841 -1.0422 5.48645 -10.0637 -3.9766 -1.54 2.3863 52.309 13.5299 -14.1045 -1.4042 -1.926 1.12499 44.0035 12.3921 -11.1857 -2.0956 0.66 -0.3894 0 6.36111e-015 -0 -5.03951 -0.0899867 2.4971 16.4926 0.275083 -5.65912 -3.79209 -1.55201 1.48059 37.334 11.9096 -10.7863 -1.4655 -1.80801 0.960898 38.6322 12.1694 -11.2725 -4.9141 -1.26899 0.359198 24.6638 -0.263229 -2.07539 -3.14769 -1.68501 0.846197 30.5291 11.315 -8.19448 -0.805497 -1.585 0.795497 30.4595 11.2959 -8.16997 8.367 -8.2066 0.5982 -25.2426 2.22145 -2.23032 2.1923 -43.463 -0.493206 0.517681 -1.29447 1.0105 0.733294 -45.8593 -2.6451 10.6085 0.0015717 -6.66424 -8.367 -8.2066 0.598201 -2.20862 -15.8682 47.3838 -2.19145 -43.4631 -0.494011 13.6704 42.7428 -6.29097 -0.733307 -45.8593 -2.64509 -16.8084 2.94816 -23.5774 
-42.3215 99.7083 -53.1709 -1.04172 7.24398 103.02 2.15562e-008 -1.186 -1.5018 -0.226731 -2.19438 1.29221 6.01497e-007 9.964 0.213399 -0.404258 -4.39332 2.57853 9.18406e-007 13.134 -3.2573 -0.404256 -4.39332 2.57853 3.60656e-006 20.686 -1.69049 -0.260055 15.7244 -8.29734 6.62567e-009 7.23801 -0.1237 -7.11533 -0.970169 -8.1801 1.7069 20.075 5.0056 -0.204485 0.875667 8.7296 13.6458 -0.0470044 -4.849 -74.4786 -0.631375 34.1182 28.3255 -0.975897 2.28881 -1.76641 7.55908 -8.85425 22.1583 -0.529999 10.8316 -27.0406 -35.2102 -2.59542 0.786005 0.111997 2.5817 0.145196 0.0956822 0.46747 0.360096 -0.877999 4.2331 -0.0556021 -0.00677078 -0.101375 1.8127 -1.21601 2.2227 0.127079 0.015359 0.232173 0.9571 1.114 1.7695 -0 -6.36111e-015 -0 4.1246 0.486992 4.1451 -0.603356 0.421017 0.630822 3.4052 -1.45401 2.7682 -0.426794 0.188748 0.175259 1.4531 -1.79499 1.2713 -0.527679 0.232736 0.21661 5.6954 0.209987 2.1184 1.52948 -0.610649 -0.548845 3.9766 -1.53999 2.3863 1.31998 -0.663592 -0.547455 1.4042 -1.926 1.125 1.50713 -0.752623 -0.618486 2.0956 0.66 -0.3894 -0 -6.36111e-015 -0 5.0395 -0.09001 2.4971 1.37315 -3.50951 -5.21463 3.7921 -1.55199 1.4806 3.6475 -2.01991 -1.68699 1.4655 -1.808 0.960896 3.82854 -2.11708 -1.76358 4.91411 -1.26901 0.359101 9.85941 -6.19081 -4.2942 3.1477 -1.685 0.846199 3.21179 -1.89466 -1.46588 0.805496 -1.58501 0.795501 2.19058 -1.27587 -1.00598 -1.7069 20.075 5.0056 -44.0665 -1.20359 5.47389 -13.6458 -0.0470104 -4.849 -11.4756 -41.7402 -8.53853 -28.3255 -0.975888 2.28879 6.46528 -31.9006 7.22848 -22.1583 -0.530011 10.8316 12.1497 -19.5347 -5.2991 -0.785998 0.112004 2.5817 -19.2121 49.9311 17.782 -0.360106 -0.877992 4.2331 -0.518262 0.461421 -1.59089 -1.8127 -1.216 2.2227 -2.7735 2.81313 -9.0134 -0.9571 1.114 1.7695 -3.18055e-015 -3.18055e-015 3.18055e-015 -4.12461 0.487011 4.14511 -23.6185 3.40211 -15.5055 -3.4052 -1.454 2.76819 39.4979 10.0978 -9.27473 -1.4531 -1.795 1.2713 38.8029 9.98602 -9.06152 -5.69541 0.21 2.1184 -1.04221 5.48646 -10.0637 -3.9766 -1.54 2.3863 52.3089 13.53 -14.1045 -1.4042 -1.926 1.12499 44.0035 12.3921 -11.1857 -2.0956 0.66 -0.3894 -3.18055e-015 -3.18055e-015 3.18055e-015 -5.03951 -0.0899874 2.4971 16.4925 0.27508 -5.65911 -3.7921 -1.55201 1.4806 37.334 11.9096 -10.7863 -1.4655 -1.80801 0.960895 38.6322 12.1694 -11.2725 -4.91411 -1.26899 0.359207 24.6638 -0.263252 -2.07538 -3.14769 -1.68501 0.846195 30.529 11.315 -8.19447 -0.805499 -1.585 0.795495 30.4595 11.2959 -8.16995 8.367 -8.2066 0.598198 -25.7655 2.23664 -2.3107 2.1923 -43.463 -0.493204 0.515071 -1.27369 0.992529 0.733295 -45.8593 -2.6451 10.5818 0.03399 -6.86652 -8.367 -8.2066 0.5982 -2.44385 -15.962 47.4602 -2.19286 -43.463 -0.492494 13.9283 43.3968 -6.66568 -0.73331 -45.8594 -2.64509 -17.0568 2.89752 -23.4931 
